<!-- Generated by IcoMoon.io -->
<svg version="1.1" xmlns="http://www.w3.org/2000/svg" width="28" height="28" viewBox="0 0 28 28">
<path fill="#fff" d="M23.031 14.266l0.609 0.797c0.172 0.219 0.125 0.516-0.078 0.688-1.563 1.219-5.156 3.984-5.313 4.109-1.109 0.906-2.609 2.156-4.234 2.141h-0.031c-1.625 0-3.125-1.234-4.234-2.141-0.172-0.141-3.641-2.812-5.172-4-0.219-0.172-0.266-0.469-0.094-0.688l0.578-0.812c0.172-0.234 0.5-0.281 0.719-0.094 1.062 0.828 2.562 1.984 4.781 3.687 0.781 0.594 2.328 2.047 3.422 2.047h0.031c1.094 0 2.641-1.453 3.422-2.047 2.297-1.766 3.828-2.938 4.891-3.781 0.219-0.172 0.531-0.125 0.703 0.094zM26 25.5v-14.5c-1.563-1.453-1.328-1.328-8.563-6.922-0.781-0.609-2.328-2.078-3.422-2.078h-0.031c-1.094 0-2.641 1.469-3.422 2.078-7.234 5.594-7 5.469-8.563 6.922v14.5c0 0.266 0.234 0.5 0.5 0.5h23c0.266 0 0.5-0.234 0.5-0.5zM28 11v14.5c0 1.375-1.125 2.5-2.5 2.5h-23c-1.375 0-2.5-1.125-2.5-2.5v-14.5c0-0.562 0.234-1.094 0.641-1.469 3.203-2.969 6.891-5.547 9.109-7.375 1.094-0.906 2.609-2.156 4.234-2.156h0.031c1.625 0 3.141 1.25 4.234 2.156 2.063 1.703 5.984 4.469 9.109 7.375 0.406 0.375 0.641 0.906 0.641 1.469z"></path>
</svg>
